HIERARCHY
ROOT SpineBase
{
  OFFSET 0.000000 0.000000 0.000000
  CHANNELS 6 Xposition Yposition Zposition Zrotation Xrotation Yrotation
  JOINT SpineMid
  {
    OFFSET 0.000000 24.113197 0.000000
    CHANNELS 3 Zrotation Xrotation Yrotation
    JOINT SpineShoulder
    {
      OFFSET -0.140331 18.064084 -0.540376
      CHANNELS 3 Zrotation Xrotation Yrotation
      JOINT Neck
      {
        OFFSET -0.023163 5.958881 -0.422177
        CHANNELS 3 Zrotation Xrotation Yrotation
        JOINT Head
        {
          OFFSET 0.277518 12.674717 0.928259
          CHANNELS 3 Zrotation Xrotation Yrotation
          End Site
          {
            OFFSET 0 0 0
          }
        }
      }
      JOINT ShoulderLeft
      {
        OFFSET -12.451566 -2.624291 3.445717
        CHANNELS 3 Zrotation Xrotation Yrotation
        JOINT ElbowLeft
        {
          OFFSET 1.361869 -21.959587 -6.099493
          CHANNELS 3 Zrotation Xrotation Yrotation
          JOINT WristLeft
          {
            OFFSET -3.395516 -19.490805 1.002512
            CHANNELS 3 Zrotation Xrotation Yrotation
            JOINT HandLeft
            {
              OFFSET 2.698606 -1.178328 -3.885381
              CHANNELS 3 Zrotation Xrotation Yrotation
              JOINT HandTipLeft
              {
                OFFSET 0.723890 -4.355612 -1.013955
                CHANNELS 3 Zrotation Xrotation Yrotation
                End Site
                {
                  OFFSET 0 0 0
                }
              }
              JOINT ThumbLeft
              {
                OFFSET -1.870531 1.274992 -0.413387
                CHANNELS 3 Zrotation Xrotation Yrotation
                End Site
                {
                  OFFSET 0 0 0
                }
              }
            }
          }
        }
      }
      JOINT ShoulderRight
      {
        OFFSET 11.872023 -5.340743 -7.491910
        CHANNELS 3 Zrotation Xrotation Yrotation
        JOINT ElbowRight
        {
          OFFSET 3.402169 -21.738355 -4.358749
          CHANNELS 3 Zrotation Xrotation Yrotation
          JOINT WristRight
          {
            OFFSET -6.938248 -16.312411 -4.666490
            CHANNELS 3 Zrotation Xrotation Yrotation
            JOINT HandRight
            {
              OFFSET -4.477401 -5.394443 -2.421282
              CHANNELS 3 Zrotation Xrotation Yrotation
              JOINT HandTipRight
              {
                OFFSET -4.025137 -5.661192 -2.623286
                CHANNELS 3 Zrotation Xrotation Yrotation
                End Site
                {
                  OFFSET 0 0 0
                }
              }
              JOINT ThumbRight
              {
                OFFSET -0.372922 -2.132713 -1.835778
                CHANNELS 3 Zrotation Xrotation Yrotation
                End Site
                {
                  OFFSET 0 0 0
                }
              }
            }
          }
        }
      }
    }
  }
  JOINT HipLeft
  {
    OFFSET -6.775601 -0.047476 -1.175879
    CHANNELS 3 Zrotation Xrotation Yrotation
    JOINT KneeLeft
    {
      OFFSET 4.800557 -24.728609 -4.241506
      CHANNELS 3 Zrotation Xrotation Yrotation
      JOINT AnkleLeft
      {
        OFFSET 12.348680 -25.140406 5.496262
        CHANNELS 3 Zrotation Xrotation Yrotation
        JOINT FootLeft
        {
          OFFSET -1.485732 8.877581 -1.042855
          CHANNELS 3 Zrotation Xrotation Yrotation
          End Site
          {
            OFFSET 0 0 0
          }
        }
      }
    }
  }
  JOINT HipRight
  {
    OFFSET 5.452571 1.186320 -4.598593
    CHANNELS 3 Zrotation Xrotation Yrotation
    JOINT KneeRight
    {
      OFFSET -0.515499 -24.400292 -7.905030
      CHANNELS 3 Zrotation Xrotation Yrotation
      JOINT AnkleRight
      {
        OFFSET 4.331201 -21.124484 15.149261
        CHANNELS 3 Zrotation Xrotation Yrotation
        JOINT FootRight
        {
          OFFSET -2.897244 6.242823 -6.341198
          CHANNELS 3 Zrotation Xrotation Yrotation
          End Site
          {
            OFFSET 0 0 0
          }
        }
      }
    }
  }
}
MOTION
Frames: 6
Frame Time: 0.033333
89.206476 74.121975 421.847508 -0.000000 0.000000 15.637145 0.000000 0.000000 -15.637145 -0.000000 0.000000 0.000000 -0.000000 0.000000 0.000000 0.000000 0.000000 0.000000 -0.000000 0.000000 0.000000 -0.000000 0.000000 0.000000 -0.000000 0.000000 0.000000 -0.000000 0.000000 0.000000 0.000000 0.000000 0.000000 0.000000 0.000000 0.000000 -0.000000 0.000000 0.000000 -0.000000 0.000000 0.000000 -0.000000 0.000000 0.000000 -0.000000 0.000000 0.000000 0.000000 0.000000 0.000000 0.000000 0.000000 0.000000 0.000000 0.000000 -15.637145 -0.000000 0.000000 0.000000 -0.000000 0.000000 0.000000 0.000000 0.000000 0.000000 0.000000 0.000000 -15.637145 -0.000000 0.000000 0.000000 -0.000000 0.000000 0.000000 0.000000 0.000000 0.000000
89.264154 74.256289 421.826072 0.067371 0.064585 15.885985 -0.082477 -0.043677 -15.886055 -0.000000 0.000000 0.000000 -0.000000 0.000000 0.000000 0.000000 0.000000 0.000000 0.022112 0.908132 0.049893 4.177952 2.202031 -0.427158 -5.240117 -5.038636 -0.786360 2.593977 4.231842 0.833718 0.000000 0.000000 0.000000 0.000000 0.000000 0.000000 -0.000000 0.000000 0.000000 1.203185 -0.933758 0.063196 2.227664 -1.816235 0.751508 -2.070214 5.367903 -3.215345 0.000000 0.000000 0.000000 0.000000 0.000000 0.000000 -1.262176 -3.134727 -16.512692 2.248676 6.992066 2.651567 4.826469 -2.002281 -0.855839 0.000000 0.000000 0.000000 -1.020683 3.336636 -15.335015 2.708154 -3.947701 0.039010 5.087497 -10.845274 0.656361 0.000000 0.000000 0.000000
89.330184 74.364984 421.807575 0.147883 0.116713 16.123052 -0.174478 -0.071055 -16.123310 -0.000000 0.000000 0.000000 -0.972155 -0.995682 0.084592 0.000000 0.000000 0.000000 0.041659 1.699347 0.092823 7.724679 4.149001 -0.893994 -10.132803 -10.109256 -2.089344 5.261749 8.820635 1.574947 0.000000 0.000000 0.000000 0.000000 0.000000 0.000000 -0.000000 0.000000 0.000000 2.436014 -1.724486 0.074224 3.789093 -3.280809 1.543168 -3.467737 9.201400 -5.601879 0.000000 0.000000 0.000000 0.000000 0.000000 0.000000 -2.490258 -5.894185 -17.364571 3.951094 13.268095 4.695566 9.211701 -3.525012 -1.067828 0.000000 0.000000 0.000000 -1.787322 5.534878 -15.158016 4.439767 -6.269182 0.129530 11.027893 -21.885500 2.827197 0.000000 0.000000 0.000000
89.404566 74.448061 421.792014 0.241532 0.156227 16.350517 -0.275744 -0.081913 -16.351044 -0.000000 0.000000 0.000000 -1.263291 -1.409634 0.107919 0.000000 0.000000 0.000000 0.058415 2.348759 0.127531 10.605391 5.853691 -1.367848 -14.750015 -15.171340 -3.882492 7.984758 13.704163 2.184424 0.000000 0.000000 0.000000 0.000000 0.000000 0.000000 -0.000000 0.000000 0.000000 3.728304 -2.411620 0.038229 4.893465 -4.552653 2.408581 -4.570910 11.624166 -7.101890 0.000000 0.000000 0.000000 0.000000 0.000000 0.000000 -3.654219 -8.240013 -18.168921 5.170447 18.682955 6.262914 12.963929 -4.405644 -0.889187 0.000000 0.000000 0.000000 -2.306357 6.651016 -15.134091 5.222924 -6.989906 0.118293 16.747335 -30.308210 5.972350 0.000000 0.000000 0.000000
89.487300 74.505518 421.779392 0.348281 0.183001 16.570338 -0.386008 -0.076072 -16.571150 0.859844 -0.198991 0.061630 -2.283741 -1.563989 0.067347 0.000000 0.000000 0.000000 -0.784525 3.034407 0.093962 12.815165 7.347407 -1.826965 -19.159529 -20.156425 -6.128103 10.734310 18.751205 2.611458 0.000000 0.000000 0.000000 0.000000 0.000000 0.000000 -0.804821 -0.746453 -0.217915 5.055434 -2.067336 0.032927 5.694621 -5.756405 3.399470 -5.643380 12.706263 -7.611429 0.000000 0.000000 0.000000 0.000000 0.000000 0.000000 -4.726015 -10.148664 -18.902068 5.944516 23.153904 7.464705 15.964060 -4.555712 -0.564430 0.000000 0.000000 0.000000 -2.587597 6.721151 -15.277858 5.076470 -6.134892 -0.055677 20.467141 -34.224442 8.542218 0.000000 0.000000 0.000000
89.578386 74.537356 421.769707 0.468061 0.196940 16.784289 -0.504992 -0.053384 -16.785328 1.056412 -0.246368 0.076146 -2.507522 -1.811950 0.059993 0.000000 0.000000 0.000000 -0.969308 3.387387 0.096125 14.363325 8.667021 -2.257553 -23.370809 -24.931035 -8.741835 13.457892 23.731379 2.800941 0.000000 0.000000 0.000000 0.000000 0.000000 0.000000 -0.824525 -1.048288 -0.320013 6.378700 -2.268544 -0.064612 6.329998 -7.012023 4.594616 -6.870123 12.470276 -7.002276 0.000000 0.000000 0.000000 0.000000 0.000000 0.000000 -5.680743 -11.608494 -19.542312 6.293101 26.641734 8.388678 18.142233 -3.932910 -0.285183 0.000000 0.000000 0.000000 -2.643669 5.749510 -15.594008 4.018485 -3.713503 -0.364506 20.065178 -32.292712 8.744981 0.000000 0.000000 0.000000
